<svg width="18" height="18" viewBox="0 0 18 18" fill="none" xmlns="http://www.w3.org/2000/svg">
<path d="M9 9.9L5.11875 13.7812C4.99375 13.9062 4.84375 13.9688 4.66875 13.9688C4.49375 13.9688 4.34375 13.9062 4.21875 13.7812C4.09375 13.6562 4.03125 13.5062 4.03125 13.3312C4.03125 13.1562 4.09375 13.0062 4.21875 12.8812L8.1 9L4.21875 5.11875C4.09375 4.99375 4.03125 4.84375 4.03125 4.66875C4.03125 4.49375 4.09375 4.34375 4.21875 4.21875C4.34375 4.09375 4.49375 4.03125 4.66875 4.03125C4.84375 4.03125 4.99375 4.09375 5.11875 4.21875L9 8.1L12.8812 4.21875C13.0062 4.09375 13.1562 4.03125 13.3312 4.03125C13.5062 4.03125 13.6562 4.09375 13.7812 4.21875C13.9062 4.34375 13.9688 4.49375 13.9688 4.66875C13.9688 4.84375 13.9062 4.99375 13.7812 5.11875L9.9 9L13.7812 12.8812C13.9062 13.0062 13.9688 13.1562 13.9688 13.3312C13.9688 13.5062 13.9062 13.6562 13.7812 13.7812C13.6562 13.9062 13.5062 13.9688 13.3312 13.9688C13.1562 13.9688 13.0062 13.9062 12.8812 13.7812L9 9.9Z" fill="black" fill-opacity="0.6"/>
</svg>
